<?xml version="1.0" standalone="no"?>
<!DOCTYPE svg PUBLIC "-//W3C//DTD SVG 1.1//EN" "http://www.w3.org/Graphics/SVG/1.1/DTD/svg11.dtd">
<svg width="100%" height="100%" viewBox="0 0 1296 528" version="1.1" xmlns="http://www.w3.org/2000/svg" xmlns:xlink="http://www.w3.org/1999/xlink" xml:space="preserve" style="fill-rule:evenodd;clip-rule:evenodd;stroke-linecap:round;stroke-linejoin:round;stroke-miterlimit:1.41421;">
    <clipPath id="_clip1">
        <path id="outline" d="M1290,135c0,-71.197 -57.803,-129 -129,-129l-1026,0c-71.197,0 -129,57.803 -129,129l0,258c0,71.197 57.803,129 129,129l1026,0c71.197,0 129,-57.803 129,-129l0,-258Z"/>
    </clipPath>
    <g clip-path="url(#_clip1)">
        <g id="lines" transform="matrix(-0.706495,-0.707718,-1.774,1.77094,1663.16,344.242)">
            <g id="line" transform="matrix(1.33266,0,0,1.01176,-171.901,-6.14118)">
                <rect x="144" y="12" width="6" height="510" style="fill:#00a4e3;"/>
            </g>
            <g id="line1" transform="matrix(1.33266,0,0,1.01176,628.097,-6.14118)">
                <rect x="144" y="12" width="6" height="510" style="fill:#00a4e3;"/>
            </g>
            <g id="line2" transform="matrix(1.33266,0,0,1.01176,228.097,-6.14118)">
                <rect x="144" y="12" width="6" height="510" style="fill:#00a4e3;"/>
            </g>
            <g id="line3" transform="matrix(1.33266,0,0,1.01176,1028.09,-6.14118)">
                <rect x="144" y="12" width="6" height="510" style="fill:#00a4e3;"/>
            </g>
            <g id="line4" transform="matrix(1.33266,0,0,1.01176,28.0967,-6.14118)">
                <rect x="144" y="12" width="6" height="510" style="fill:#00a4e3;"/>
            </g>
            <g id="line5" transform="matrix(1.33266,0,0,1.01176,828.095,-6.14118)">
                <rect x="144" y="12" width="6" height="510" style="fill:#00a4e3;"/>
            </g>
            <g id="line6" transform="matrix(1.33266,0,0,1.01176,428.095,-6.14118)">
                <rect x="144" y="12" width="6" height="510" style="fill:#00a4e3;"/>
            </g>
            <g id="line7" transform="matrix(1.33266,0,0,1.01176,1228.09,-6.14118)">
                <rect x="144" y="12" width="6" height="510" style="fill:#00a4e3;"/>
            </g>
            <g id="line8" transform="matrix(1.33266,0,0,1.01176,-71.9033,-6.14118)">
                <rect x="144" y="12" width="6" height="510" style="fill:#00a4e3;"/>
            </g>
            <g id="line9" transform="matrix(1.33266,0,0,1.01176,728.095,-6.14118)">
                <rect x="144" y="12" width="6" height="510" style="fill:#00a4e3;"/>
            </g>
            <g id="line10" transform="matrix(1.33266,0,0,1.01176,328.095,-6.14118)">
                <rect x="144" y="12" width="6" height="510" style="fill:#00a4e3;"/>
            </g>
            <g id="line11" transform="matrix(1.33266,0,0,1.01176,1128.09,-6.14118)">
                <rect x="144" y="12" width="6" height="510" style="fill:#00a4e3;"/>
            </g>
            <g id="line12" transform="matrix(1.33266,0,0,1.01176,128.095,-6.14118)">
                <rect x="144" y="12" width="6" height="510" style="fill:#00a4e3;"/>
            </g>
            <g id="line13" transform="matrix(1.33266,0,0,1.01176,928.093,-6.14118)">
                <rect x="144" y="12" width="6" height="510" style="fill:#00a4e3;"/>
            </g>
            <g id="line14" transform="matrix(1.33266,0,0,1.01176,528.093,-6.14118)">
                <rect x="144" y="12" width="6" height="510" style="fill:#00a4e3;"/>
            </g>
            <g id="line15" transform="matrix(1.33266,0,0,1.01176,1328.09,-6.14118)">
                <rect x="144" y="12" width="6" height="510" style="fill:#00a4e3;"/>
            </g>
        </g>
    </g>
    <path id="outline1" d="M1290,135c0,-71.197 -57.803,-129 -129,-129l-1026,0c-71.197,0 -129,57.803 -129,129l0,258c0,71.197 57.803,129 129,129l1026,0c71.197,0 129,-57.803 129,-129l0,-258Z" style="fill:none;stroke-width:8px;stroke:#000;"/>
    <g id="text" transform="matrix(1,0,0,1,-29.5781,78.0424)">
        <rect x="161.906" y="96.942" width="18.188" height="137.438" style="fill:#000;fill-rule:nonzero;"/>
        <path d="M328.313,222.098c-6.25,5.313 -12.266,9.063 -18.047,11.25c-5.782,2.188 -11.985,3.281 -18.61,3.281c-10.937,0 -19.343,-2.671 -25.218,-8.015c-5.875,-5.344 -8.813,-12.172 -8.813,-20.485c0,-4.875 1.109,-9.328 3.328,-13.359c2.219,-4.031 5.125,-7.266 8.719,-9.703c3.594,-2.438 7.641,-4.281 12.141,-5.531c3.312,-0.875 8.312,-1.719 15,-2.532c13.625,-1.625 23.656,-3.562 30.093,-5.812c0.063,-2.313 0.094,-3.781 0.094,-4.406c0,-6.875 -1.594,-11.719 -4.781,-14.532c-4.313,-3.812 -10.719,-5.718 -19.219,-5.718c-7.937,0 -13.797,1.39 -17.578,4.172c-3.781,2.781 -6.578,7.703 -8.391,14.765l-16.5,-2.25c1.5,-7.062 3.969,-12.765 7.407,-17.109c3.437,-4.344 8.406,-7.688 14.906,-10.031c6.5,-2.344 14.031,-3.516 22.594,-3.516c8.5,0 15.406,1 20.718,3c5.313,2 9.219,4.516 11.719,7.547c2.5,3.031 4.25,6.859 5.25,11.484c0.563,2.875 0.844,8.063 0.844,15.563l0,22.5c0,15.687 0.359,25.609 1.078,29.765c0.719,4.157 2.141,8.141 4.266,11.953l-17.625,0c-1.75,-3.5 -2.875,-7.593 -3.375,-12.281ZM326.906,184.411c-6.125,2.5 -15.312,4.625 -27.562,6.375c-6.938,1 -11.844,2.125 -14.719,3.375c-2.875,1.25 -5.094,3.078 -6.656,5.484c-1.563,2.406 -2.344,5.078 -2.344,8.016c0,4.5 1.703,8.25 5.109,11.25c3.407,3 8.391,4.5 14.954,4.5c6.5,0 12.281,-1.422 17.343,-4.266c5.063,-2.844 8.781,-6.734 11.156,-11.672c1.813,-3.812 2.719,-9.437 2.719,-16.875l0,-6.187Z" style="fill:#000;fill-rule:nonzero;"/>
        <path d="M370.125,234.379l0,-99.562l15.094,0l0,13.969c3.125,-4.875 7.281,-8.797 12.469,-11.766c5.187,-2.969 11.093,-4.453 17.718,-4.453c7.375,0 13.422,1.531 18.141,4.594c4.719,3.062 8.047,7.343 9.984,12.843c7.875,-11.625 18.125,-17.437 30.75,-17.437c9.875,0 17.469,2.734 22.781,8.203c5.313,5.469 7.969,13.891 7.969,25.266l0,68.343l-16.781,0l0,-62.718c0,-6.75 -0.547,-11.61 -1.641,-14.578c-1.093,-2.969 -3.078,-5.36 -5.953,-7.172c-2.875,-1.813 -6.25,-2.719 -10.125,-2.719c-7,0 -12.812,2.328 -17.437,6.984c-4.625,4.657 -6.938,12.11 -6.938,22.36l0,57.843l-16.875,0l0,-64.687c0,-7.5 -1.375,-13.125 -4.125,-16.875c-2.75,-3.75 -7.25,-5.625 -13.5,-5.625c-4.75,0 -9.14,1.25 -13.172,3.75c-4.031,2.5 -6.953,6.156 -8.765,10.969c-1.813,4.812 -2.719,11.75 -2.719,20.812l0,51.656l-16.875,0Z" style="fill:#000;fill-rule:nonzero;"/>
        <path d="M577.125,184.598c0,-18.437 5.125,-32.094 15.375,-40.969c8.563,-7.375 19,-11.062 31.313,-11.062c13.687,0 24.875,4.484 33.562,13.453c8.688,8.969 13.031,21.359 13.031,37.172c0,12.812 -1.922,22.891 -5.765,30.234c-3.844,7.344 -9.438,13.047 -16.782,17.11c-7.343,4.062 -15.359,6.093 -24.046,6.093c-13.938,0 -25.204,-4.468 -33.797,-13.406c-8.594,-8.937 -12.891,-21.812 -12.891,-38.625ZM594.469,184.598c0,12.75 2.781,22.297 8.343,28.641c5.563,6.344 12.563,9.515 21,9.515c8.375,0 15.344,-3.187 20.907,-9.562c5.562,-6.375 8.343,-16.094 8.343,-29.156c0,-12.313 -2.796,-21.641 -8.39,-27.985c-5.594,-6.343 -12.547,-9.515 -20.86,-9.515c-8.437,0 -15.437,3.156 -21,9.468c-5.562,6.313 -8.343,15.844 -8.343,28.594Z" style="fill:#000;fill-rule:nonzero;"/>
        <path d="M717.844,234.379l-37.875,-99.562l17.812,0l21.375,59.625c2.313,6.437 4.438,13.125 6.375,20.062c1.5,-5.25 3.594,-11.562 6.281,-18.937l22.125,-60.75l17.344,0l-37.687,99.562l-15.75,0Z" style="fill:#000;fill-rule:nonzero;"/>
        <path d="M854.344,202.317l17.437,2.156c-2.75,10.188 -7.844,18.094 -15.281,23.719c-7.438,5.625 -16.938,8.437 -28.5,8.437c-14.563,0 -26.109,-4.484 -34.641,-13.453c-8.531,-8.968 -12.797,-21.547 -12.797,-37.734c0,-16.75 4.313,-29.75 12.938,-39c8.625,-9.25 19.812,-13.875 33.562,-13.875c13.313,0 24.188,4.531 32.625,13.594c8.438,9.062 12.657,21.812 12.657,38.25c0,1 -0.032,2.5 -0.094,4.5l-74.25,0c0.625,10.937 3.719,19.312 9.281,25.125c5.563,5.812 12.5,8.718 20.813,8.718c6.187,0 11.468,-1.625 15.843,-4.875c4.375,-3.25 7.844,-8.437 10.407,-15.562ZM798.938,175.036l55.593,0c-0.75,-8.375 -2.875,-14.657 -6.375,-18.844c-5.375,-6.5 -12.343,-9.75 -20.906,-9.75c-7.75,0 -14.266,2.594 -19.547,7.781c-5.281,5.188 -8.203,12.125 -8.765,20.813Z" style="fill:#000;fill-rule:nonzero;"/>
        <path d="M892.781,234.379l0,-99.562l15.188,0l0,15.094c3.875,-7.063 7.453,-11.719 10.734,-13.969c3.281,-2.25 6.891,-3.375 10.828,-3.375c5.688,0 11.469,1.812 17.344,5.437l-5.813,15.657c-4.125,-2.438 -8.25,-3.657 -12.375,-3.657c-3.687,0 -7,1.11 -9.937,3.329c-2.938,2.218 -5.031,5.296 -6.281,9.234c-1.875,6 -2.813,12.562 -2.813,19.687l0,52.125l-16.875,0Z" style="fill:#000;fill-rule:nonzero;"/>
        <path d="M1094.25,218.161l0,16.218l-90.844,0c-0.125,-4.062 0.532,-7.968 1.969,-11.718c2.313,-6.188 6.016,-12.282 11.109,-18.282c5.094,-6 12.453,-12.937 22.078,-20.812c14.938,-12.25 25.032,-21.953 30.282,-29.109c5.25,-7.157 7.875,-13.922 7.875,-20.297c0,-6.688 -2.391,-12.328 -7.172,-16.922c-4.781,-4.594 -11.016,-6.891 -18.703,-6.891c-8.125,0 -14.625,2.438 -19.5,7.313c-4.875,4.875 -7.344,11.625 -7.407,20.25l-17.343,-1.782c1.187,-12.937 5.656,-22.796 13.406,-29.578c7.75,-6.781 18.156,-10.172 31.219,-10.172c13.187,0 23.625,3.657 31.312,10.969c7.688,7.313 11.532,16.375 11.532,27.188c0,5.5 -1.125,10.906 -3.375,16.218c-2.25,5.313 -5.985,10.907 -11.204,16.782c-5.218,5.875 -13.89,13.937 -26.015,24.187c-10.125,8.5 -16.625,14.266 -19.5,17.297c-2.875,3.031 -5.25,6.078 -7.125,9.141l67.406,0Z" style="fill:#000;fill-rule:nonzero;"/>
        <path d="M1175.91,234.379l-16.875,0l0,-107.531c-4.062,3.875 -9.39,7.75 -15.984,11.625c-6.594,3.875 -12.516,6.781 -17.766,8.719l0,-16.313c9.438,-4.437 17.688,-9.812 24.75,-16.125c7.063,-6.312 12.063,-12.437 15,-18.375l10.875,0l0,138Z" style="fill:#000;fill-rule:nonzero;"/>
    </g>
</svg>
